<?xml version="1.0" encoding="UTF-8"?><svg id="Layer_2" xmlns="http://www.w3.org/2000/svg" width="428" height="285.56" xmlns:xlink="http://www.w3.org/1999/xlink" viewBox="0 0 428 285.56"><defs><style>.cls-1{fill:#7e4a00;}.cls-2{fill:#fff;}.cls-3{stroke:#7e4a00;stroke-linecap:round;stroke-miterlimit:10;stroke-width:8px;}.cls-3,.cls-4{fill:none;}.cls-5{clip-path:url(#clippath-1);}.cls-6{clip-path:url(#clippath);}.cls-7{fill:#9e663f;fill-rule:evenodd;}</style><clipPath id="clippath"><path id="Vector_9-2" class="cls-4" d="M313.34,143.21c.75,.65,.9,1.8,.25,2.55-.05,.1-.15,.15-.25,.25-9.3,8.11-19.61,18.37-30.16,23.62-11.2,5.6-22.76,5.25-34.21,2.1-4.35-1.4-8.65-3.1-12.76-5.05-.95-.35-1.45-1.4-1.1-2.35,.05-.15,.15-.35,.25-.45,8.15-12.16,19.76-21.62,33.26-27.17,13.05-5.05,33.01-3.1,44.71,6.51Z"/></clipPath><clipPath id="clippath-1"><path id="Vector_11-2" class="cls-4" d="M183.75,162.73c.51,.81,.2,1.88-.61,2.33-.1,.05-.25,.1-.35,.15-8.51,3.14-17.36,5.07-26.43,5.67-9.82,.71-19.54-1.77-27.84-7.09-7.64-5.27-12.81-13.27-17.31-21.43-.46-.81-.15-1.87,.66-2.33,.05,0,.1-.05,.15-.05,12.6-5.47,27.74-9.42,40.6-5.22,12.91,4.21,24.04,16.31,31.13,27.96Z"/></clipPath></defs><g id="Layer_3"><g id="cat"><g id="body"><path id="Union" class="cls-7" d="M283.16,278.46c51.51-17.2,69.25-58.51,71.7-106.81,1.09-21.08-4.18-41.22-14.36-59.09,.98-5.67,4.57-26.81,6.34-40.81,1.76-13.83,4.28-78.72-16-71.13-18.44,6.91-41.7,18.55-75.42,47.94-12.07-3.48-24.87-5.66-38.17-6.34-20.14-1.02-39.48,1.52-57.19,6.97-6.15-5.41-14.25-12.32-21.59-17.92C127.42,22.81,69.73-6.86,67.78,14.7c-1.88,20.75-1.3,48.54,12.49,96.59-7.62,13.93-12.22,29.38-13.05,45.76-2.65,52.14,19.11,97.69,77.08,118.25,42.92,13.52,114.92,12.52,136.91,3.68,.63-.25,1.32-.28,1.95-.52h0Z"/></g><g id="eyes"><path id="Vector_9" class="cls-2" d="M313.34,143.21c.75,.65,.9,1.8,.25,2.55-.05,.1-.15,.15-.25,.25-9.3,8.11-19.61,18.37-30.16,23.62-11.2,5.6-22.76,5.25-34.21,2.1-4.35-1.4-8.65-3.1-12.76-5.05-.95-.35-1.45-1.4-1.1-2.35,.05-.15,.15-.35,.25-.45,8.15-12.16,19.76-21.62,33.26-27.17,13.05-5.05,33.01-3.1,44.71,6.51Z"/><g class="cls-6"><path id="Vector_10" class="cls-1" d="M273.36,150.53c.64-2.68,.79-5.45,.49-8.18-.3-2.87-.98-5.65-2.12-8.32-1.28-3.87-3.79-7.24-7.09-9.62-1.82-1.04-3.89-1.54-6-1.39-1.97,.2-3.79,1.09-5.17,2.53-1.28,1.14-2.17,2.63-2.61,4.31-.69,2.53-.98,5.2-.84,7.83,.25,6.44,2.51,12.59,6.4,17.69,1.43,1.64,3.3,2.83,5.36,3.42,3.89,.79,7.87-.89,10.04-4.26,.74-1.24,1.23-2.63,1.52-4.01Z"/></g><path id="Vector_11" class="cls-2" d="M183.75,162.73c.51,.81,.2,1.88-.61,2.33-.1,.05-.25,.1-.35,.15-8.51,3.14-17.36,5.07-26.43,5.67-9.82,.71-19.54-1.77-27.84-7.09-7.64-5.27-12.81-13.27-17.31-21.43-.46-.81-.15-1.87,.66-2.33,.05,0,.1-.05,.15-.05,12.6-5.47,27.74-9.42,40.6-5.22,12.91,4.21,24.04,16.31,31.13,27.96Z"/><g class="cls-5"><path id="Vector_12" class="cls-1" d="M156.08,136.7c1.23-3.76,1.23-7.89,0-11.65-1.85-4.83-7.34-7.28-12.22-5.44-.2,.05-.36,.15-.51,.2-2.82,1.63-5.29,3.92-7.13,6.56-3.95,5.49-6.11,12.11-6.21,18.87,.1,2.19,.82,4.32,2.1,6.1,2,2.64,5.29,4.02,8.62,3.56,2.05-.56,3.95-1.53,5.6-2.85,2.41-1.83,4.42-4.12,6.01-6.66,1.69-2.64,2.98-5.6,3.75-8.7Z"/></g></g><g id="mouth"><path id="Vector_13" class="cls-1" d="M217.03,189.18c-9.16-2.84-18.93-2.89-28.14-.21-1.58,.67-2.7,2.17-2.85,3.93-.2,1.76,.51,3.51,1.93,4.65,.41,.31,.82,.67,1.17,1.03-.76-1.03,.15,.15,.36,.41,.2,.26,1.02,1.19,1.48,1.81,.46,.62,.51,.67,.71,1.08,.05,.05,.1,.15,.15,.21,.36,.62,.66,1.29,1.02,1.96,1.53,3.2,3,6.4,4.83,9.5,.1,.21,.26,.41,.36,.62,.05,.1,.15,.15,.2,.21l.2,.26c1.63,1.55,4.12,1.81,6.01,.62,.15-.05,.31-.15,.41-.26,.71-.52,1.22-1.19,1.53-2.01,.1-.36,.26-.72,.41-1.08v-.15c.46-.77,1.02-1.45,1.58-2.12l.92-1.08,.41-.46c.76-.67,1.43-1.45,2.09-2.12,3.36-2.79,6.01-6.3,7.79-10.28,1.12-2.58-.05-5.42-2.55-6.51Zm-7.23,18.85l.15-.15c.31-.41,0-.15-.2,.15h.05Z"/><path id="Vector_21" class="cls-3" d="M202,211.21c-9.62,67.38-90.58,55.35-101-3.21"/><path id="Vector_22" class="cls-3" d="M303,217.21c-9.62,67.38-90.58,55.35-101-3.21"/></g><g id="whiskers"><path id="Vector_14" class="cls-1" d="M138.97,197.19c-44.57,4.5-89.59,2.8-133.66-5.1-5.34-1-7.61,7.1-2.27,8.1,44.82,8.1,90.6,9.9,135.92,5.4,5.34-.55,5.39-8.95,0-8.4Z"/><path id="Vector_15" class="cls-1" d="M142.73,218.64c-30.88,18.83-66.3,29.19-102.63,30.03-5.46,0-5.46,8.33,0,8.33,37.85-.84,74.74-11.65,106.93-31.17,4.6-2.78,.35-10.01-4.29-7.19Z"/><path id="Vector_16" class="cls-1" d="M266.11,204.92c14.61-1.79,29.17,1.05,43.73,1.79,13.19,.65,26.39,.2,39.48-1.3,26.54-3.09,52.37-10.42,76.49-21.74,4.95-2.29,.66-9.52-4.3-7.23-23.56,11.07-48.83,18.1-74.77,20.84-12.69,1.35-25.48,1.69-38.22,1-14.15-.8-28.31-3.44-42.46-1.74-5.36,.65-5.46,9.07,0,8.38h.05Z"/><path id="Vector_17" class="cls-1" d="M265.13,227.62c31.32,14.2,64.65,23.42,98.84,27.35,5.42,.61,5.32-7.86,0-8.46-32.68-3.78-64.56-12.59-94.52-26.09-4.92-2.22-9.19,5.09-4.27,7.3l-.05-.1Z"/></g></g></g></svg>