<?xml version="1.0" encoding="UTF-8"?><svg id="Layer_2" xmlns="http://www.w3.org/2000/svg" width="95.16" height="125.38" viewBox="0 0 95.16 125.38"><defs><style>.cls-1{fill:#bc5c5f;}.cls-2{fill:#fff;}.cls-3{fill:#6f3738;}.cls-4{fill:#ffffc9;}.cls-5{fill:#99343e;}.cls-6{fill:#f5eec1;}.cls-7{fill:#bf5665;}.cls-8{fill:#ccc;}.cls-9{fill:#dda957;}.cls-10{isolation:isolate;opacity:.2;}</style></defs><g id="Layer_3"><g><path class="cls-6" d="M70.04,120.11l-34.38,.72c-3.2,.07-5.06-3.66-3.03-6.14,2.28-2.78,6.25-5.68,13.12-6.8l24.29,12.22Z"/><path class="cls-6" d="M32.99,69.15l-8.84,8.05c-1.22,1.24-2.07,2.78-2.47,4.47-.02,.1-.04,.2-.06,.3-.69,3.6,4.5,3.99,5.55,1.15l.02-.1c3.71-.31,8.49-3.41,10.16-4.57,.36-.25,.5-.71,.33-1.11l-3.21-7.85c-.24-.6-1.01-.77-1.48-.33Z"/><g><circle class="cls-9" cx="22.87" cy="97.7" r="10.71"/><path class="cls-2" d="M13.66,97.89c.06,2.92,1.49,5.63,3.87,7.32,.08,.06,.16,.11,.24,.16,3.21,2.13,7.4,2.05,10.52-.22,.08-.06,.16-.11,.23-.17,4.02-3.12,4.75-8.91,1.63-12.93-.55-.71-1.21-1.34-1.94-1.86-.08-.06-.16-.11-.24-.16-3.21-2.13-7.4-2.05-10.52,.22-.08,.06-.16,.11-.23,.17-2.31,1.79-3.63,4.56-3.57,7.47Z"/><circle class="cls-1" cx="22.87" cy="97.7" r="8.42"/><path class="cls-10" d="M22.68,89.31c.13,0,.25,0,.38,0-4.62,.5-7.96,4.66-7.46,9.28,.46,4.19,3.94,7.4,8.16,7.5-.24,.03-.49,.04-.74,.05-4.65,.1-8.49-3.59-8.59-8.24-.1-4.65,3.59-8.49,8.24-8.59h0Z"/><path class="cls-2" d="M22.66,88.69c.15,0,.28,.12,.28,.27l.02,1.2c0,.15-.12,.28-.27,.28s-.28-.12-.28-.27l-.02-1.2c0-.15,.12-.28,.27-.28Z"/><path class="cls-2" d="M17.23,90.42c.08-.06,.15-.12,.23-.17,.1,0,.19,.04,.25,.11l.69,.97c.09,.12,.06,.29-.06,.38s-.29,.06-.38-.06l-.69-.97c-.05-.08-.07-.17-.03-.26Z"/><path class="cls-2" d="M14.26,94.99c.05-.14,.21-.21,.35-.16h0l1.12,.43c.14,.05,.21,.21,.16,.35-.05,.14-.21,.21-.35,.16h0l-1.12-.43c-.14-.05-.21-.21-.16-.35Z"/><path class="cls-2" d="M27.08,91.16l.65-1c.05-.08,.14-.13,.24-.12,.08,.05,.16,.11,.24,.16,.04,.08,.03,.18-.02,.26l-.65,1c-.08,.13-.25,.16-.38,.08-.13-.08-.16-.25-.08-.38Z"/><path class="cls-2" d="M29.91,94.96l1.1-.47c.14-.06,.3,0,.36,.14s0,.3-.14,.36l-1.1,.47c-.14,.06-.3,0-.36-.14s0-.3,.14-.36h0Z"/><path class="cls-2" d="M23,104.97c.15,0,.28,.12,.28,.27l.02,1.2c0,.15-.12,.28-.27,.28s-.28-.12-.28-.27l-.02-1.2c0-.15,.12-.28,.27-.28Z"/><path class="cls-2" d="M17.55,104.95l.65-1c.08-.13,.25-.16,.38-.08s.16,.25,.08,.38l-.65,1c-.05,.08-.14,.13-.24,.12-.08-.05-.16-.11-.24-.16-.04-.08-.03-.18,.02-.26Z"/><path class="cls-2" d="M14.53,100.41l1.1-.47c.14-.06,.3,0,.36,.14s0,.3-.14,.36h0l-1.1,.47c-.14,.06-.3,0-.36-.14-.06-.14,0-.3,.14-.36h0Z"/><path class="cls-2" d="M27.41,103.69c.12-.09,.29-.06,.38,.06l.69,.97c.05,.08,.07,.17,.03,.26-.08,.06-.15,.12-.23,.17-.1,0-.19-.04-.25-.11l-.69-.97c-.09-.12-.06-.29,.06-.38h0Z"/><path class="cls-2" d="M29.86,99.8c.05-.14,.21-.21,.35-.16h0l1.12,.43c.14,.05,.21,.21,.16,.35s-.21,.21-.35,.16l-1.12-.43c-.14-.05-.21-.21-.16-.35Z"/><path class="cls-3" d="M22.49,97.57c-.05,.31,.17,.6,.48,.65l4.88,.73c.31,.05,.6-.17,.65-.48s-.17-.6-.48-.65l-4.88-.73c-.31-.05-.6,.17-.65,.48Z"/><path class="cls-3" d="M17.49,103.06c.15,.14,.38,.14,.53,0l5.12-5.3c.14-.15,.14-.38,0-.53-.15-.14-.38-.14-.53,0l-5.12,5.3c-.14,.15-.14,.38,0,.53Z"/><circle class="cls-8" cx="22.87" cy="97.7" r=".65"/></g><path class="cls-4" d="M29.42,65.37C11.82,65.8-1.48,57.31,.13,46.77c1.59-10.38,11.86-22.99,19.96-26.66,2.57-1.17,5.39-1.84,8.36-1.9,12.33-.25,22.54,10.1,22.81,23.12,.06,3.09-.44,6.05-1.4,8.77-.19,5.56,10.06,26.02,15.7,30.08,5.1,3.67,13.24,9.79,14.44,17.03,.35-.88,.78-1.72,1.27-2.53,4.27-6.88,15.12-3.01,13.78,4.98-.18,1.14-.64,2.22-1.36,3.13l-.04,.05c-2.19,2.69-5.74,3.87-9.1,3.02l-2.05-.52c.84,6.47-.48,15.34-12.18,19.34l-34.38,.72c-3.2,.07-5.06-3.66-3.03-6.14,2.28-2.78,6.25-5.68,13.12-6.8,0,0-14.49-.05-14.26-23.03l.07-14.12-.21-10.09c-.73,.09-1.47,.15-2.22,.17Z"/><path class="cls-4" d="M31.47,22.19S44.87-.78,73.31,.02c0,0-7.06,22.02-35.87,29.71"/><path class="cls-4" d="M29.77,21.18s23.35-12.72,47.27,2.68c0,0-17.44,15.19-46.07,6.86"/><circle cx="22.93" cy="37.71" r="5.15"/><path class="cls-7" d="M33.48,101.51c-.1,.07-.23,.03-.27-.08-.41-1.19-2.25-6.96-2.11-13.46,.16-7.31,.43-15.96,.43-15.96l10.24-5.18,5.38,24.72-13.67,9.97Z"/><path class="cls-5" d="M32,70.77l20.46-11.26c.32-.18,.73-.05,.9,.28,1.28,2.64,6.54,13.17,11.52,18.98,.23,.27,.18,.67-.11,.87l-23.32,16.49c-.2,.14-.47,.05-.56-.17l-9.18-24.4c-.11-.3,.01-.63,.29-.79Z"/><path class="cls-4" d="M37.4,76.7l-8.98,8.17c-1.22,1.24-2.07,2.78-2.47,4.47-.02,.1-.04,.2-.06,.3-.69,3.6,4.5,3.99,5.55,1.15l.02-.1c3.78-.32,8.67-3.53,10.25-4.63,.31-.21,.42-.61,.28-.96l-3.32-8.12c-.21-.51-.87-.66-1.28-.29Z"/></g></g></svg>