<?xml version="1.0" encoding="UTF-8"?><svg id="Layer_2" xmlns="http://www.w3.org/2000/svg" width="45.76" height="71.61" viewBox="0 0 45.76 71.61"><defs><style>.cls-1{fill:#271b0f;}</style></defs><g id="Layer_4"><path class="cls-1" d="M24.4,61.7h0l-.28-9.43-2.11-39.01,11.24,5s9.68,1.96,8.99,12.45c-.01,.23,.29,.32,.41,.13l2.19-3.54s4.26-7.81-5.68-11.55c0,0-14.82-2.56-18.65-15.57-.07-.25-.44-.2-.43,.06l1.27,52.05-.11,.34-2.45-.89c-1.96-.71-4.01-1.17-6.09-1.3-2.4-.15-3.69,.08-4.29,.1C1.17,51.48-.96,58.07,.37,63.98c.99,4.41,5.56,7.92,11.94,7.62,6.29-.3,12.14-5.43,12.09-9.9Z"/></g></svg>