<?xml version="1.0" encoding="UTF-8"?><svg id="Layer_2" xmlns="http://www.w3.org/2000/svg" width="124.61" height="85" viewBox="0 0 124.61 85"><defs><style>.cls-1{fill:#dae4f2;}.cls-2{fill:#9fc8e2;}</style></defs><g id="Layer_3"><path class="cls-1" d="M124.53,4.37H.1S12.18,38.45,58.01,41.21c.83,.05,1.48,.73,1.48,1.56l-2,40.12c0,1.17,.95,2.12,2.12,2.12h7.56c1.17,0,2.12-.95,2.12-2.12l-2-40.06c0-.83,.66-1.51,1.49-1.56,44.06-2.43,55.74-36.89,55.74-36.89Z"/><path class="cls-2" d="M124.53,4.37c1.89,3.13-28.07,4.63-62.43,4.63S-1.96,6,.1,4.37C3.09,2,39.09,0,63.09,0c21,0,60,2,61.43,4.37Z"/></g></svg>