<?xml version="1.0" encoding="UTF-8"?><svg id="Layer_2" xmlns="http://www.w3.org/2000/svg" width="95.07" height="95.19" viewBox="0 0 95.07 95.19"><defs><style>.cls-1{fill:#e2ba00;}.cls-2{fill:#a23800;}</style></defs><g id="Layer_3"><path class="cls-2" d="M39.62,42.16L19.85,15.73c-2.11-2.83-.96-6.89,2.32-8.19L40.26,.38c3.43-1.36,7.17,1.07,7.33,4.76l1.53,35.97-9.5,1.06Z"/><path class="cls-2" d="M56.28,42.8l32.71-4.44c3.5-.48,6.49,2.51,6.03,6.01l-2.53,19.29c-.48,3.65-4.42,5.75-7.72,4.09l-32.19-16.13,3.69-8.82Z"/><path class="cls-2" d="M49.27,36.68l15.96-28.89c1.71-3.09,5.89-3.71,8.42-1.26l13.96,13.54c2.65,2.57,1.97,6.98-1.32,8.63l-32.16,16.19-4.87-8.22Z"/><path class="cls-2" d="M40.81,50.67l-29.97,13.83c-3.21,1.48-6.94-.49-7.53-3.97L.08,41.35c-.61-3.63,2.54-6.79,6.18-6.18l35.5,5.99-.94,9.51Z"/><path class="cls-2" d="M46.85,55.83l2.11,32.94c.23,3.52-2.96,6.3-6.42,5.59l-19.06-3.89c-3.61-.74-5.42-4.82-3.54-7.99l18.37-30.96,8.53,4.31Z"/><path class="cls-2" d="M58,53.09l23.82,22.85c2.55,2.44,2.08,6.64-.95,8.46l-16.67,10.02c-3.16,1.9-7.25,.11-8.01-3.49l-7.39-35.24,9.2-2.6Z"/><circle class="cls-1" cx="47.27" cy="47.71" r="12.93"/></g></svg>