<?xml version="1.0" encoding="UTF-8"?><svg id="Layer_2" xmlns="http://www.w3.org/2000/svg" width="142.66" height="135.68" viewBox="0 0 142.66 135.68" ><defs><style>.cls-1{fill:#9fc8e2;}</style></defs><g id="Layer_4"><path class="cls-1" d="M71.33,0L0,51.82l27.25,83.85H115.41l27.25-83.85L71.33,0Zm26.13,64.68c-.4,2.59-1.61,4.3-4.26,8.03l-21.14,24.2c-.52,.59-1.44,.59-1.96,0l-20.06-22.93c-1.6-1.8-5.08-6.39-5.02-10.76,.09-7.7,6.41-14.02,14.11-14.11,5.37-.06,9.99,2.92,12.27,7.34,2.53-4.74,7.65-7.93,13.42-7.61,8.06,.45,13.89,7.83,12.65,15.84Z"/></g></svg>