<?xml version="1.0" encoding="UTF-8"?><svg id="Layer_2" xmlns="http://www.w3.org/2000/svg" width="115.55" height="116.19" viewBox="0 0 115.55 116.19"><defs><style>.cls-1{fill:#8e3300;}.cls-2{fill:#ffb240;}</style></defs><g id="Layer_3"><path class="cls-1" d="M54.08,69.24l-21.49,34.16c-2.3,3.66-7.44,4.13-10.37,.95L6.12,86.85c-3.05-3.32-1.92-8.65,2.21-10.45l40.37-17.54,5.38,10.38Z"/><path class="cls-1" d="M45.42,51.52L16.72,23.15c-3.07-3.04-2.42-8.16,1.32-10.33L38.61,.89c3.9-2.26,8.86,0,9.72,4.42l8.38,43.21-11.29,3Z"/><path class="cls-1" d="M66.41,48.43l37.51-14.89c4.01-1.59,8.44,1.06,8.93,5.35l2.67,23.63c.51,4.48-3.55,8.12-7.95,7.13l-42.94-9.68,1.79-11.55Z"/><path class="cls-1" d="M53.79,45.84L66.32,7.48c1.34-4.1,6.22-5.81,9.82-3.44l19.88,13.05c3.77,2.47,3.97,7.92,.4,10.67l-34.89,26.84-7.74-8.76Z"/><path class="cls-1" d="M47.56,61.4l-38.74,11.29c-4.15,1.21-8.31-1.85-8.38-6.17L0,42.74c-.08-4.51,4.3-7.75,8.59-6.35l41.84,13.68-2.87,11.33Z"/><path class="cls-1" d="M65.18,67.61l13.52,38.02c1.45,4.07-1.37,8.4-5.67,8.73l-23.71,1.81c-4.49,.34-7.98-3.85-6.84-8.2l11.22-42.56,11.48,2.2Z"/><path class="cls-1" d="M71.84,59.99l36.48,17.24c3.9,1.85,4.99,6.9,2.18,10.18l-15.45,18.08c-2.93,3.43-8.36,2.94-10.64-.94l-22.24-37.98,9.66-6.58Z"/><circle class="cls-2" cx="58.12" cy="58.97" r="16.45"/></g></svg>