<?xml version="1.0" encoding="UTF-8"?><svg id="Layer_2" xmlns="http://www.w3.org/2000/svg" width="30.22" height="30.59" viewBox="0 0 30.22 30.59"><defs><style>.cls-1{fill:#6d3d16;}.cls-2{stroke-width:1.28px;}.cls-2,.cls-3{fill:none;stroke:#84542d;stroke-linecap:round;stroke-miterlimit:10;}.cls-3{stroke-width:1.47px;}</style></defs><g id="Layer_3"><g><circle class="cls-1" cx="15.02" cy="15.19" r="13.43"/><line class="cls-3" x1="9.19" y1="28.96" x2="10.53" y2="23.02"/><line class="cls-3" x1="7.09" y1="10.84" x2="4.09" y2="6.99"/><g><line class="cls-3" x1="17.09" y1="12.33" x2="22.23" y2="7.51"/><line class="cls-2" x1="6.26" y1="23.94" x2="10.17" y2="19.48"/><line class="cls-3" x1="11.92" y1="11.67" x2="7.5" y2="5.77"/><line class="cls-3" x1="23.8" y1="16.56" x2="29.48" y2="18.35"/><line class="cls-3" x1="17.76" y1="7.73" x2="21.18" y2="2.36"/><line class="cls-3" x1="21.53" y1="19.97" x2="26.56" y2="23.85"/><line class="cls-3" x1="20.82" y1="24.42" x2="17.12" y2="18.91"/><line class="cls-3" x1=".73" y1="13.69" x2="6.3" y2="14.2"/><line class="cls-3" x1="23.94" y1="13.55" x2="28.79" y2="12.2"/><line class="cls-3" x1="14.72" y1="7.37" x2="12.38" y2=".73"/><line class="cls-3" x1="17.34" y1="29.85" x2="15.81" y2="24.08"/><line class="cls-3" x1="1.49" y1="20.79" x2="6.26" y2="18.5"/><line class="cls-3" x1="21.07" y1="11.6" x2="27.22" y2="8.15"/><line class="cls-3" x1="13" y1="24.87" x2="14.55" y2="17.85"/></g></g></g></svg>